<?xml version="1.0" encoding="UTF-8" standalone="no"?>
<!DOCTYPE svg PUBLIC "-//W3C//DTD SVG 1.1//EN" "http://www.w3.org/Graphics/SVG/1.1/DTD/svg11.dtd">
<svg version="1.1" xmlns="http://www.w3.org/2000/svg" xmlns:xlink="http://www.w3.org/1999/xlink" preserveAspectRatio="xMidYMid meet" viewBox="0 0 640 640" width="640" height="640"><defs><path d="M404.64 265.92C404.64 316.11 366.49 356.86 319.5 356.86C272.52 356.86 234.37 316.11 234.37 265.92C234.37 215.73 272.52 174.98 319.5 174.98C366.49 174.98 404.64 215.73 404.64 265.92Z" id="a6CTTqyTuW"></path><path d="M426.42 260.87C426.42 323.76 376.51 374.82 315.03 374.82C253.55 374.82 203.64 323.76 203.64 260.87C203.64 197.98 253.55 146.92 315.03 146.92C376.51 146.92 426.42 197.98 426.42 260.87Z" id="g4QbaPqHp"></path><path d="M349.44 389.06C349.44 406.82 335.75 421.24 318.88 421.24C302.02 421.24 288.32 406.82 288.32 389.06C288.32 371.3 302.02 356.88 318.88 356.88C335.75 356.88 349.44 371.3 349.44 389.06Z" id="aPUoH2CAN"></path><path d="M287.82 329.11L350.94 329.11L350.94 384.06L287.82 384.06L287.82 329.11Z" id="cJeZCcMhI"></path><path d="M292.29 297.3L345.62 297.3L345.62 381.71L292.29 381.71L292.29 297.3Z" id="b6ocg7dwal"></path><path d="M293.08 297.37L346.41 297.37L346.41 381.79L293.08 381.79L293.08 297.37Z" id="af9VQKrIN"></path><path d="M401.19 264.41C401.19 312.77 364.59 352.04 319.5 352.04C274.42 352.04 237.82 312.77 237.82 264.41C237.82 216.05 274.42 176.79 319.5 176.79C364.59 176.79 401.19 216.05 401.19 264.41Z" id="a25jjXkK2t"></path><path d="M385.98 267.92C385.98 305.7 356.42 336.37 320 336.37C283.59 336.37 254.03 305.7 254.03 267.92C254.03 230.14 283.59 199.46 320 199.46C356.42 199.46 385.98 230.14 385.98 267.92Z" id="b55Kr9RODH"></path><path d="M188.32 241.98L224.48 241.98L224.48 375.82L188.32 375.82L188.32 241.98Z" id="bmIjJDuFN"></path><path d="M208.61 316.57L235.35 316.57L235.35 341.65L208.61 341.65L208.61 316.57Z" id="a6oNGkYlr"></path><path d="M218.61 326.57L245.35 326.57L245.35 351.65L218.61 351.65L218.61 326.57Z" id="c1bKX0zWSJ"></path><path d="M228.61 336.57L255.35 336.57L255.35 361.65L228.61 361.65L228.61 336.57Z" id="c2c2KM9Aoc"></path><path d="M238.61 346.57L265.35 346.57L265.35 371.65L238.61 371.65L238.61 346.57Z" id="blXRYaMk"></path><path d="M248.61 356.57L275.35 356.57L275.35 381.65L248.61 381.65L248.61 356.57Z" id="a54t4qVHAV"></path><path d="M255.87 353.75L282.61 353.75L282.61 378.84L255.87 378.84L255.87 353.75Z" id="awKyZu6U"></path><path d="M213.07 251.93C213.07 257.41 208.19 261.87 202.18 261.87C196.17 261.87 191.29 257.41 191.29 251.93C191.29 246.44 196.17 241.98 202.18 241.98C208.19 241.98 213.07 246.44 213.07 251.93Z" id="e7dN1aEuL"></path><path d="M233.22 201.23C233.22 206.72 228.34 211.18 222.33 211.18C216.32 211.18 211.44 206.72 211.44 201.23C211.44 195.74 216.32 191.29 222.33 191.29C228.34 191.29 233.22 195.74 233.22 201.23Z" id="c2Epoy85UG"></path><path d="M298.71 152.11C298.71 157.6 293.83 162.06 287.82 162.06C281.81 162.06 276.93 157.6 276.93 152.11C276.93 146.62 281.81 142.17 287.82 142.17C293.83 142.17 298.71 146.62 298.71 152.11Z" id="jQHoiF746"></path><path d="M336.7 149.78C336.7 157.75 324.75 164.22 310.03 164.22C295.31 164.22 283.37 157.75 283.37 149.78C283.37 141.81 295.31 135.34 310.03 135.34C324.75 135.34 336.7 141.81 336.7 149.78Z" id="adfqz80nl"></path><path d="M332.97 145.28C332.97 150.77 328.09 155.22 322.08 155.22C316.07 155.22 311.19 150.77 311.19 145.28C311.19 139.79 316.07 135.34 322.08 135.34C328.09 135.34 332.97 139.79 332.97 145.28Z" id="a65ByLWnyh"></path><path d="M428.95 312.81C428.95 318.29 424.07 322.75 418.06 322.75C412.05 322.75 407.17 318.29 407.17 312.81C407.17 307.32 412.05 302.86 418.06 302.86C424.07 302.86 428.95 307.32 428.95 312.81Z" id="adK8CFsD5"></path><path d="M394.65 354.5C394.65 360.82 388.66 365.95 381.29 365.95C373.91 365.95 367.92 360.82 367.92 354.5C367.92 348.18 373.91 343.06 381.29 343.06C388.66 343.06 394.65 348.18 394.65 354.5Z" id="b1NUzLeCWx"></path><path d="M406.63 348.66C406.63 354.14 401.75 358.6 395.74 358.6C389.73 358.6 384.85 354.14 384.85 348.66C384.85 343.17 389.73 338.71 395.74 338.71C401.75 338.71 406.63 343.17 406.63 348.66Z" id="b37gxQEgM6"></path><path d="M415.53 333.51C415.53 340.44 410.65 346.06 404.64 346.06C398.63 346.06 393.75 340.44 393.75 333.51C393.75 326.59 398.63 320.97 404.64 320.97C410.65 320.97 415.53 326.59 415.53 333.51Z" id="c2MS2vj3c"></path><path d="M422.97 320.37C422.97 325.86 418.09 330.32 412.08 330.32C406.07 330.32 401.19 325.86 401.19 320.37C401.19 314.88 406.07 310.43 412.08 310.43C418.09 310.43 422.97 314.88 422.97 320.37Z" id="d4a2RR25l0"></path><path d="M430.99 300.05C430.99 306.97 426.11 312.6 420.1 312.6C414.09 312.6 409.21 306.97 409.21 300.05C409.21 293.13 414.09 287.51 420.1 287.51C426.11 287.51 430.99 293.13 430.99 300.05Z" id="bdPD0kBaD"></path><path d="M437.31 287.48C437.31 292.97 432.43 297.43 426.42 297.43C420.41 297.43 415.53 292.97 415.53 287.48C415.53 281.99 420.41 277.54 426.42 277.54C432.43 277.54 437.31 281.99 437.31 287.48Z" id="e2XMK5U7wo"></path><path d="M437.31 271.81C437.31 277.3 432.43 281.76 426.42 281.76C420.41 281.76 415.53 277.3 415.53 271.81C415.53 266.33 420.41 261.87 426.42 261.87C432.43 261.87 437.31 266.33 437.31 271.81Z" id="b1q1ONBma"></path><path d="M450.2 266.41C450.2 271.9 445.32 276.36 439.31 276.36C433.3 276.36 428.42 271.9 428.42 266.41C428.42 260.92 433.3 256.47 439.31 256.47C445.32 256.47 450.2 260.92 450.2 266.41Z" id="a1tgUpB5gS"></path><path d="M338.81 157.87C338.81 163.35 333.93 167.81 327.92 167.81C321.91 167.81 317.03 163.35 317.03 157.87C317.03 152.38 321.91 147.92 327.92 147.92C333.93 147.92 338.81 152.38 338.81 157.87Z" id="ceN13G43i"></path><path d="M343.86 142.17C343.86 147.66 338.98 152.11 332.97 152.11C326.96 152.11 322.08 147.66 322.08 142.17C322.08 136.68 326.96 132.22 332.97 132.22C338.98 132.22 343.86 136.68 343.86 142.17Z" id="bJoVSdEdU"></path><path d="M403.45 343.14C403.45 349.46 398.57 354.59 392.56 354.59C386.55 354.59 381.67 349.46 381.67 343.14C381.67 336.83 386.55 331.7 392.56 331.7C398.57 331.7 403.45 336.83 403.45 343.14Z" id="ayYssLBHE"></path><path d="M384.95 365.01C384.95 371.93 378.96 377.55 371.58 377.55C364.21 377.55 358.22 371.93 358.22 365.01C358.22 358.09 364.21 352.47 371.58 352.47C378.96 352.47 384.95 358.09 384.95 365.01Z" id="b2uRA8spt"></path><path d="M427.42 263.31C427.42 266.14 425.43 268.43 422.97 268.43C420.51 268.43 418.52 266.14 418.52 263.31C418.52 260.49 420.51 258.2 422.97 258.2C425.43 258.2 427.42 260.49 427.42 263.31Z" id="e7jEsrlNn"></path><path d="M429 264.65C429 267.47 427 269.76 424.55 269.76C422.09 269.76 420.1 267.47 420.1 264.65C420.1 261.83 422.09 259.54 424.55 259.54C427 259.54 429 261.83 429 264.65Z" id="e3Bb3T5j5"></path><path d="M432.86 265.92C432.86 268.74 430.87 271.03 428.42 271.03C425.96 271.03 423.97 268.74 423.97 265.92C423.97 263.1 425.96 260.81 428.42 260.81C430.87 260.81 432.86 263.1 432.86 265.92Z" id="e4IC73sIKN"></path><path d="M340.53 148.92C340.53 151.74 338.54 154.03 336.08 154.03C333.63 154.03 331.63 151.74 331.63 148.92C331.63 146.1 333.63 143.81 336.08 143.81C338.54 143.81 340.53 146.1 340.53 148.92Z" id="gdMxAes5j"></path><path d="M341.87 148.92C341.87 151.74 339.87 154.03 337.42 154.03C334.96 154.03 332.97 151.74 332.97 148.92C332.97 146.1 334.96 143.81 337.42 143.81C339.87 143.81 341.87 146.1 341.87 148.92Z" id="dhuKVCsC7"></path><path d="M283.36 157.87C283.36 159.28 281.92 160.42 280.15 160.42C278.37 160.42 276.93 159.28 276.93 157.87C276.93 156.46 278.37 155.31 280.15 155.31C281.92 155.31 283.36 156.46 283.36 157.87Z" id="a5A4dQZKE"></path><path d="M279.53 149.58C280.36 150.73 279.87 152.5 278.43 153.54C277 154.58 275.16 154.5 274.33 153.36C273.5 152.22 273.99 150.45 275.43 149.41C276.87 148.36 278.7 148.44 279.53 149.58Z" id="c26JU8JuSx"></path><path d="M283.36 155.31C283.36 156.72 281.92 157.87 280.15 157.87C278.37 157.87 276.93 156.72 276.93 155.31C276.93 153.9 278.37 152.75 280.15 152.75C281.92 152.75 283.36 153.9 283.36 155.31Z" id="dwO3UZYuW"></path><path d="M342.37 154.03C342.37 156.85 340.37 159.14 337.92 159.14C335.46 159.14 333.47 156.85 333.47 154.03C333.47 151.21 335.46 148.92 337.92 148.92C340.37 148.92 342.37 151.21 342.37 154.03Z" id="d2OkXqL33H"></path><path d="M347.27 143.81C347.27 146.63 345.27 148.92 342.82 148.92C340.36 148.92 338.37 146.63 338.37 143.81C338.37 140.99 340.36 138.69 342.82 138.69C345.27 138.69 347.27 140.99 347.27 143.81Z" id="a1Llaen7LM"></path><path d="M343.86 148.48C343.86 149.89 342.42 151.03 340.65 151.03C338.87 151.03 337.43 149.89 337.43 148.48C337.43 147.07 338.87 145.92 340.65 145.92C342.42 145.92 343.86 147.07 343.86 148.48Z" id="a7xviUe65s"></path><path d="M342.82 150.48C342.82 151.89 341.38 153.03 339.6 153.03C337.83 153.03 336.39 151.89 336.39 150.48C336.39 149.07 337.83 147.92 339.6 147.92C341.38 147.92 342.82 149.07 342.82 150.48Z" id="c1WFht0U9n"></path><path d="M342.51 152.11C342.51 153.52 341.07 154.67 339.3 154.67C337.52 154.67 336.08 153.52 336.08 152.11C336.08 150.7 337.52 149.56 339.3 149.56C341.07 149.56 342.51 150.7 342.51 152.11Z" id="e5CMUpt20E"></path><path d="M342.82 153.03C342.82 154.44 341.38 155.59 339.6 155.59C337.83 155.59 336.39 154.44 336.39 153.03C336.39 151.62 337.83 150.48 339.6 150.48C341.38 150.48 342.82 151.62 342.82 153.03Z" id="a2uYaQh2JT"></path><path d="M343.86 154.67C343.86 156.08 342.42 157.22 340.65 157.22C338.87 157.22 337.43 156.08 337.43 154.67C337.43 153.26 338.87 152.11 340.65 152.11C342.42 152.11 343.86 153.26 343.86 154.67Z" id="e6ZbBlO5Q"></path><path d="M348.3 146.36C348.3 147.77 346.86 148.92 345.08 148.92C343.31 148.92 341.87 147.77 341.87 146.36C341.87 144.95 343.31 143.81 345.08 143.81C346.86 143.81 348.3 144.95 348.3 146.36Z" id="e18KlClK8C"></path><path d="M346.04 147C346.04 148.41 344.59 149.56 342.82 149.56C341.04 149.56 339.6 148.41 339.6 147C339.6 145.59 341.04 144.44 342.82 144.44C344.59 144.44 346.04 145.59 346.04 147Z" id="b8e69HbW0"></path><path d="M280.9 158.14C280.9 159.55 279.46 160.7 277.68 160.7C275.91 160.7 274.47 159.55 274.47 158.14C274.47 156.73 275.91 155.59 277.68 155.59C279.46 155.59 280.9 156.73 280.9 158.14Z" id="aNoJ9Tn6M"></path><path d="M270.88 154.86C272.58 154.37 274.29 155.06 274.68 156.42C275.08 157.77 274.01 159.27 272.31 159.77C270.61 160.27 268.9 159.57 268.51 158.22C268.11 156.87 269.17 155.36 270.88 154.86Z" id="aq2QRxxtp"></path><path d="M271.13 155.28C272.83 154.78 274.54 155.48 274.93 156.83C275.33 158.19 274.26 159.69 272.56 160.19C270.86 160.69 269.15 159.99 268.76 158.64C268.36 157.28 269.42 155.78 271.13 155.28Z" id="h3kUMcl0jD"></path><path d="M273.46 154.76C275.24 154.79 276.66 155.95 276.64 157.36C276.62 158.77 275.17 159.9 273.39 159.87C271.62 159.85 270.19 158.68 270.21 157.27C270.23 155.86 271.69 154.74 273.46 154.76Z" id="daGO0Dad2"></path><path d="M273.3 154.18C275.07 154.2 276.5 155.37 276.48 156.78C276.46 158.19 275 159.31 273.23 159.29C271.45 159.27 270.03 158.1 270.05 156.69C270.06 155.28 271.52 154.16 273.3 154.18Z" id="d5Koh3l7A6"></path><path d="M225.47 191.79C226.36 190.25 228.07 189.58 229.29 190.29C230.51 190.99 230.78 192.81 229.89 194.35C229 195.89 227.28 196.56 226.06 195.85C224.84 195.14 224.58 193.32 225.47 191.79Z" id="f3b6laICwI"></path><path d="M227.18 191.1C228.66 190.12 230.5 190.28 231.27 191.46C232.05 192.63 231.49 194.38 230.01 195.36C228.53 196.35 226.69 196.19 225.91 195.01C225.13 193.84 225.7 192.08 227.18 191.1Z" id="a2PGmeaAFo"></path><path d="M226.6 191.27C228.08 190.29 229.91 190.45 230.69 191.62C231.47 192.8 230.9 194.55 229.42 195.53C227.94 196.51 226.11 196.35 225.33 195.18C224.55 194 225.12 192.25 226.6 191.27Z" id="a6ciUdy6u5"></path><path d="M205.29 241.32C205.23 239.55 206.32 238.07 207.73 238.02C209.14 237.97 210.34 239.37 210.4 241.15C210.46 242.92 209.37 244.4 207.96 244.45C206.55 244.5 205.35 243.1 205.29 241.32Z" id="agpklQn3"></path><path d="M204.29 242.57C204.23 240.8 205.32 239.32 206.73 239.27C208.14 239.22 209.34 240.62 209.4 242.4C209.46 244.17 208.37 245.65 206.96 245.7C205.55 245.75 204.35 244.35 204.29 242.57Z" id="cY5irWDYm"></path><path d="M205.03 241.68C205.65 240.01 207.23 239.06 208.55 239.55C209.87 240.05 210.44 241.8 209.82 243.46C209.2 245.12 207.63 246.07 206.3 245.58C204.98 245.09 204.41 243.34 205.03 241.68Z" id="a1ipZmtrWQ"></path><path d="M425.35 259.09C425.29 257.32 426.39 255.84 427.79 255.79C429.2 255.74 430.4 257.14 430.46 258.92C430.52 260.69 429.43 262.17 428.02 262.22C426.61 262.27 425.41 260.87 425.35 259.09Z" id="bdYqHcBct"></path><path d="M426.22 259.98C426.16 258.2 427.25 256.72 428.66 256.68C430.07 256.63 431.27 258.03 431.33 259.8C431.39 261.57 430.29 263.05 428.88 263.1C427.48 263.15 426.28 261.75 426.22 259.98Z" id="b3IJmlHo9u"></path><path d="M425.86 260.07C425.73 258.3 426.76 256.78 428.17 256.67C429.57 256.57 430.82 257.92 430.96 259.69C431.09 261.46 430.05 262.98 428.65 263.09C427.24 263.19 425.99 261.84 425.86 260.07Z" id="agYdjwYt2"></path><path d="M425.48 259.95C425.35 258.18 426.39 256.65 427.79 256.55C429.2 256.44 430.45 257.8 430.58 259.57C430.71 261.34 429.68 262.86 428.27 262.96C426.86 263.07 425.62 261.72 425.48 259.95Z" id="g4F7HBCod"></path><path d="M345.17 148.62C346.95 148.64 348.37 149.81 348.35 151.22C348.33 152.63 346.88 153.75 345.1 153.73C343.33 153.7 341.9 152.54 341.92 151.13C341.94 149.72 343.4 148.59 345.17 148.62Z" id="a9yHffSXV"></path><path d="M344.8 149.3C346.57 149.33 348 150.49 347.98 151.9C347.96 153.31 346.5 154.44 344.73 154.42C342.95 154.39 341.53 153.23 341.55 151.82C341.56 150.41 343.02 149.28 344.8 149.3Z" id="a5hqHSVcbB"></path><path d="M344.61 148.74C346.38 148.77 347.81 149.93 347.79 151.34C347.77 152.75 346.31 153.88 344.54 153.85C342.76 153.83 341.34 152.66 341.36 151.25C341.38 149.84 342.83 148.72 344.61 148.74Z" id="d29oFRCoJ1"></path><path d="M319.34 241.26C324.07 241.26 327.91 245.1 327.91 249.83C327.91 276.42 327.91 347.61 327.91 374.2C327.91 378.93 324.07 382.76 319.34 382.76C317.55 382.76 320.76 382.76 318.98 382.76C314.25 382.76 310.41 378.93 310.41 374.2C310.41 347.61 310.41 276.42 310.41 249.83C310.41 245.1 314.25 241.26 318.98 241.26C320.76 241.26 317.55 241.26 319.34 241.26Z" id="a1nuSznASg"></path><path d="M325.03 366.77L330.91 366.77L330.91 383.52L325.03 383.52L325.03 366.77Z" id="j1QqPVLbz"></path><path d="M307.41 367.77L313.28 367.77L313.28 384.52L307.41 384.52L307.41 367.77Z" id="a15aYhiABN"></path><path d="M321.03 288.82L337.78 288.82L337.78 308.71L321.03 308.71L321.03 288.82Z" id="bomG74UI"></path><path d="M279.93 148.75C279.93 150.16 277.94 151.31 275.48 151.31C273.03 151.31 271.03 150.16 271.03 148.75C271.03 147.34 273.03 146.2 275.48 146.2C277.94 146.2 279.93 147.34 279.93 148.75Z" id="eotzdx8ig"></path><path d="M346.54 146.53C348.31 146.55 349.74 147.72 349.72 149.13C349.7 150.54 348.24 151.66 346.47 151.64C344.69 151.61 343.27 150.45 343.29 149.04C343.31 147.63 344.76 146.5 346.54 146.53Z" id="b2GVd9R5te"></path><path d="M345.56 151.17C347.04 152.15 347.6 153.9 346.82 155.08C346.04 156.25 344.21 156.41 342.73 155.42C341.25 154.44 340.69 152.69 341.47 151.52C342.25 150.34 344.08 150.19 345.56 151.17Z" id="b32b5V80FT"></path><path d="M346.92 146.81C348.4 147.8 348.8 149.79 347.81 151.27C346.83 152.75 344.83 153.15 343.35 152.17C341.88 151.18 341.48 149.19 342.46 147.71C343.44 146.23 345.44 145.83 346.92 146.81Z" id="fq0P8F4fj"></path><path d="M345.99 147.03C347.47 148.01 347.87 150.01 346.89 151.49C345.9 152.96 343.9 153.36 342.43 152.38C340.95 151.4 340.55 149.4 341.53 147.92C342.51 146.44 344.51 146.04 345.99 147.03Z" id="aikfvxPhR"></path><path d="M345.92 149.67C347.4 150.65 347.8 152.65 346.81 154.13C345.83 155.61 343.83 156.01 342.35 155.02C340.88 154.04 340.48 152.04 341.46 150.57C342.44 149.09 344.44 148.69 345.92 149.67Z" id="bnN5lsamd"></path><path d="M344.99 148.6C346.47 149.58 346.87 151.58 345.89 153.06C344.9 154.53 342.9 154.94 341.43 153.95C339.95 152.97 339.55 150.97 340.53 149.49C341.51 148.02 343.51 147.61 344.99 148.6Z" id="b1gmw1rY9c"></path><path d="M345.06 147.24C346.54 148.22 346.94 150.22 345.96 151.7C344.97 153.18 342.98 153.58 341.5 152.6C340.02 151.61 339.62 149.61 340.6 148.14C341.59 146.66 343.58 146.26 345.06 147.24Z" id="arvuV3AX1"></path><path d="M345.13 149.03C346.61 150.01 347.01 152.01 346.03 153.49C345.04 154.96 343.05 155.36 341.57 154.38C340.09 153.4 339.69 151.4 340.67 149.92C341.66 148.44 343.65 148.04 345.13 149.03Z" id="c1yjFyGbp"></path><path d="M275.06 150.67C276.54 151.65 276.94 153.65 275.96 155.13C274.97 156.61 272.98 157.01 271.5 156.02C270.02 155.04 269.62 153.04 270.6 151.57C271.59 150.09 273.58 149.69 275.06 150.67Z" id="b4gE3WBOC7"></path><path d="M276.13 150.88C277.61 151.87 278.01 153.87 277.03 155.34C276.04 156.82 274.05 157.22 272.57 156.24C271.09 155.26 270.69 153.26 271.67 151.78C272.66 150.3 274.65 149.9 276.13 150.88Z" id="eDk5MTCN"></path><path d="M275.92 154.1C277.4 155.08 277.8 157.08 276.81 158.56C275.83 160.03 273.83 160.44 272.35 159.45C270.88 158.47 270.48 156.47 271.46 154.99C272.44 153.52 274.44 153.11 275.92 154.1Z" id="c25r80Z51e"></path><path d="M276.7 153.31C278.18 154.3 278.58 156.29 277.6 157.77C276.62 159.25 274.62 159.65 273.14 158.67C271.66 157.68 271.26 155.69 272.24 154.21C273.23 152.73 275.23 152.33 276.7 153.31Z" id="d2OSRygbfZ"></path><path d="M277.06 152.1C278.54 153.08 278.94 155.08 277.96 156.56C276.97 158.03 274.98 158.44 273.5 157.45C272.02 156.47 271.62 154.47 272.6 152.99C273.59 151.52 275.58 151.11 277.06 152.1Z" id="brPAKWWx"></path><path d="M276.7 151.31C278.18 152.3 278.58 154.29 277.6 155.77C276.62 157.25 274.62 157.65 273.14 156.67C271.66 155.68 271.26 153.69 272.24 152.21C273.23 150.73 275.23 150.33 276.7 151.31Z" id="a4baLjNNib"></path><path d="M221.64 190.47C223.12 189.49 224.95 189.65 225.73 190.82C226.51 192 225.94 193.75 224.46 194.73C222.98 195.71 221.15 195.55 220.37 194.38C219.59 193.2 220.16 191.45 221.64 190.47Z" id="bws8Rg52y"></path><path d="M222.27 190.96C223.75 189.98 225.75 190.39 226.73 191.87C227.71 193.35 227.31 195.34 225.83 196.32C224.35 197.3 222.35 196.9 221.37 195.42C220.39 193.94 220.79 191.94 222.27 190.96Z" id="asblelJr"></path><path d="M223.34 191.45C224.82 190.47 226.82 190.88 227.8 192.36C228.78 193.84 228.37 195.83 226.89 196.82C225.41 197.8 223.42 197.39 222.43 195.91C221.45 194.43 221.86 192.43 223.34 191.45Z" id="aaeqY9WET"></path><path d="M225.1 190.9C227.14 189.55 229.6 189.65 230.58 191.13C231.56 192.61 230.7 194.91 228.65 196.27C226.61 197.62 224.15 197.52 223.17 196.04C222.19 194.56 223.05 192.26 225.1 190.9Z" id="a7x3Y2rjc"></path><path d="M211.7 206.21C212.52 203.89 214.55 202.5 216.22 203.1C217.89 203.69 218.58 206.06 217.76 208.37C216.93 210.68 214.9 212.07 213.23 211.48C211.56 210.88 210.87 208.52 211.7 206.21Z" id="b3ICNllVap"></path><path d="M215.01 207.62C216.88 206.03 219.34 205.85 220.48 207.21C221.63 208.56 221.03 210.95 219.16 212.53C217.28 214.12 214.83 214.3 213.68 212.94C212.54 211.59 213.13 209.2 215.01 207.62Z" id="b2uSK0Bd0"></path><path d="M212.59 205.5C213.94 203.45 216.24 202.57 217.72 203.55C219.2 204.52 219.31 206.98 217.97 209.03C216.62 211.08 214.32 211.96 212.84 210.98C211.35 210.01 211.24 207.55 212.59 205.5Z" id="egme2Qcfb"></path><path d="M213.23 205.99C214.57 203.94 216.87 203.07 218.36 204.04C219.84 205.01 219.95 207.47 218.6 209.52C217.25 211.58 214.95 212.45 213.47 211.48C211.99 210.5 211.88 208.04 213.23 205.99Z" id="aN6d8nj55"></path><path d="M214.72 207.2C216.07 205.15 218.37 204.27 219.85 205.25C221.34 206.22 221.45 208.68 220.1 210.73C218.75 212.78 216.45 213.66 214.97 212.68C213.48 211.71 213.37 209.25 214.72 207.2Z" id="bcmGN2erF"></path><path d="M213.92 206.11C215.27 204.06 217.57 203.19 219.05 204.16C220.54 205.14 220.65 207.59 219.3 209.65C217.95 211.7 215.65 212.57 214.17 211.6C212.68 210.62 212.57 208.17 213.92 206.11Z" id="aNFcpavp3"></path><path d="M200.06 242.94C199.94 241.17 200.99 239.66 202.39 239.56C203.8 239.47 205.04 240.83 205.16 242.6C205.28 244.37 204.23 245.89 202.83 245.98C201.42 246.08 200.18 244.72 200.06 242.94Z" id="cuNBxZiFo"></path><path d="M200.98 243.72C200.86 241.95 201.91 240.44 203.32 240.34C204.72 240.25 205.96 241.61 206.08 243.38C206.2 245.15 205.16 246.66 203.75 246.76C202.34 246.85 201.1 245.49 200.98 243.72Z" id="b5sfgm3nFH"></path><path d="M204.72 242.76C205.21 241.06 206.71 239.99 208.07 240.38C209.43 240.77 210.13 242.47 209.64 244.18C209.15 245.88 207.65 246.95 206.29 246.56C204.94 246.17 204.23 244.47 204.72 242.76Z" id="f2uPROe3ap"></path><path d="M202.35 243.25C202.84 241.55 204.34 240.48 205.69 240.87C207.05 241.26 207.75 242.96 207.26 244.67C206.77 246.37 205.27 247.44 203.91 247.05C202.56 246.66 201.86 244.96 202.35 243.25Z" id="bJKVORtH9"></path><path d="M203.84 243.17C204.33 241.46 205.83 240.4 207.19 240.79C208.54 241.18 209.24 242.88 208.75 244.58C208.26 246.29 206.76 247.36 205.41 246.97C204.05 246.58 203.35 244.88 203.84 243.17Z" id="a5OFnLl3Rl"></path><path d="M256.52 357.11L283.25 357.11L283.25 382.2L256.52 382.2L256.52 357.11Z" id="ccCsct0VV"></path><path d="M354.5 353.57L381.23 353.57L381.23 400L354.5 400L354.5 353.57Z" id="a9V7v1jOsH"></path><path d="M421.41 259.19C421.35 257.41 422.46 255.94 423.87 255.9C425.28 255.86 426.46 257.27 426.52 259.04C426.57 260.81 425.46 262.29 424.05 262.33C422.64 262.37 421.46 260.96 421.41 259.19Z" id="c489Nv4Oln"></path><path d="M422.19 259.97C422.14 258.2 423.24 256.72 424.65 256.68C426.06 256.64 427.25 258.05 427.3 259.83C427.35 261.6 426.25 263.07 424.84 263.11C423.43 263.15 422.24 261.75 422.19 259.97Z" id="a4v3kixJYi"></path><path d="M422.1 259.76C422.02 256.94 423.95 254.59 426.4 254.52C428.86 254.45 430.92 256.69 431 259.51C431.08 262.33 429.15 264.67 426.7 264.74C424.24 264.81 422.19 262.58 422.1 259.76Z" id="diHrD1unO"></path><path d="M315.41 366.08L322.91 366.08L322.91 381.83L315.41 381.83L315.41 366.08Z" id="dFpH1rYNZ"></path><path d="M327.78 372.7L332.91 372.7L332.91 382.83L327.78 382.83L327.78 372.7Z" id="f7DmrbFFM"></path><path d="M305.53 371.58L311.16 371.58L311.16 384.08L305.53 384.08L305.53 371.58Z" id="d2u2Dnv7An"></path></defs><g><g><g><use xlink:href="#a6CTTqyTuW" opacity="1" fill="#ffffff" fill-opacity="1"></use><g><use xlink:href="#a6CTTqyTuW" opacity="1" fill-opacity="0" stroke="#3e3e3e" stroke-width="10" stroke-opacity="1"></use></g></g><g><use xlink:href="#g4QbaPqHp" opacity="1" fill="#ffffff" fill-opacity="0"></use><g><use xlink:href="#g4QbaPqHp" opacity="1" fill-opacity="0" stroke="#3e3e3e" stroke-width="10" stroke-opacity="1"></use></g></g><g><use xlink:href="#aPUoH2CAN" opacity="1" fill="#ffffff" fill-opacity="1"></use><g><use xlink:href="#aPUoH2CAN" opacity="1" fill-opacity="0" stroke="#3e3e3e" stroke-width="10" stroke-opacity="1"></use></g></g><g><use xlink:href="#cJeZCcMhI" opacity="1" fill="#3e3e3e" fill-opacity="0.38"></use><g><use xlink:href="#cJeZCcMhI" opacity="1" fill-opacity="0" stroke="#3e3e3e" stroke-width="9" stroke-opacity="1"></use></g></g><g><use xlink:href="#b6ocg7dwal" opacity="1" fill="#ffffff" fill-opacity="1"></use></g><g><use xlink:href="#af9VQKrIN" opacity="1" fill="#ffffff" fill-opacity="1"></use></g><g><use xlink:href="#a25jjXkK2t" opacity="1" fill="#ffffff" fill-opacity="1"></use></g><g><use xlink:href="#b55Kr9RODH" opacity="1" fill="#f7d601" fill-opacity="1"></use></g><g><use xlink:href="#bmIjJDuFN" opacity="1" fill="#ffffff" fill-opacity="1"></use></g><g><use xlink:href="#a6oNGkYlr" opacity="1" fill="#ffffff" fill-opacity="1"></use></g><g><use xlink:href="#c1bKX0zWSJ" opacity="1" fill="#ffffff" fill-opacity="1"></use></g><g><use xlink:href="#c2c2KM9Aoc" opacity="1" fill="#ffffff" fill-opacity="1"></use></g><g><use xlink:href="#blXRYaMk" opacity="1" fill="#ffffff" fill-opacity="1"></use></g><g><use xlink:href="#a54t4qVHAV" opacity="1" fill="#ffffff" fill-opacity="1"></use></g><g><use xlink:href="#awKyZu6U" opacity="1" fill="#ffffff" fill-opacity="1"></use></g><g><use xlink:href="#e7dN1aEuL" opacity="1" fill="#ffffff" fill-opacity="0.76"></use></g><g><use xlink:href="#c2Epoy85UG" opacity="1" fill="#ffffff" fill-opacity="1"></use></g><g><use xlink:href="#jQHoiF746" opacity="1" fill="#ffffff" fill-opacity="1"></use></g><g><use xlink:href="#adfqz80nl" opacity="1" fill="#ffffff" fill-opacity="1"></use></g><g><use xlink:href="#a65ByLWnyh" opacity="1" fill="#ffffff" fill-opacity="1"></use></g><g><use xlink:href="#adK8CFsD5" opacity="1" fill="#ffffff" fill-opacity="1"></use></g><g><use xlink:href="#b1NUzLeCWx" opacity="1" fill="#ffffff" fill-opacity="1"></use></g><g><use xlink:href="#b37gxQEgM6" opacity="1" fill="#ffffff" fill-opacity="1"></use></g><g><use xlink:href="#c2MS2vj3c" opacity="1" fill="#ffffff" fill-opacity="1"></use></g><g><use xlink:href="#d4a2RR25l0" opacity="1" fill="#ffffff" fill-opacity="1"></use></g><g><use xlink:href="#bdPD0kBaD" opacity="1" fill="#ffffff" fill-opacity="1"></use></g><g><use xlink:href="#e2XMK5U7wo" opacity="1" fill="#ffffff" fill-opacity="1"></use></g><g><use xlink:href="#b1q1ONBma" opacity="1" fill="#ffffff" fill-opacity="1"></use></g><g><use xlink:href="#a1tgUpB5gS" opacity="1" fill="#ffffff" fill-opacity="1"></use></g><g><use xlink:href="#ceN13G43i" opacity="1" fill="#ffffff" fill-opacity="1"></use></g><g><use xlink:href="#bJoVSdEdU" opacity="1" fill="#ffffff" fill-opacity="1"></use></g><g><use xlink:href="#ayYssLBHE" opacity="1" fill="#ffffff" fill-opacity="1"></use></g><g><use xlink:href="#b2uRA8spt" opacity="1" fill="#ffffff" fill-opacity="1"></use></g><g><use xlink:href="#e7jEsrlNn" opacity="1" fill="#ffffff" fill-opacity="1"></use></g><g><use xlink:href="#e3Bb3T5j5" opacity="1" fill="#ffffff" fill-opacity="1"></use></g><g><use xlink:href="#e4IC73sIKN" opacity="1" fill="#ffffff" fill-opacity="1"></use></g><g><use xlink:href="#gdMxAes5j" opacity="1" fill="#ffffff" fill-opacity="1"></use></g><g><use xlink:href="#dhuKVCsC7" opacity="1" fill="#ffffff" fill-opacity="1"></use></g><g><use xlink:href="#a5A4dQZKE" opacity="1" fill="#ffffff" fill-opacity="1"></use></g><g><use xlink:href="#c26JU8JuSx" opacity="1" fill="#ffffff" fill-opacity="1"></use></g><g><use xlink:href="#dwO3UZYuW" opacity="1" fill="#ffffff" fill-opacity="1"></use></g><g><use xlink:href="#d2OkXqL33H" opacity="1" fill="#ffffff" fill-opacity="1"></use></g><g><use xlink:href="#a1Llaen7LM" opacity="1" fill="#ffffff" fill-opacity="1"></use></g><g><use xlink:href="#a7xviUe65s" opacity="1" fill="#ffffff" fill-opacity="1"></use></g><g><use xlink:href="#c1WFht0U9n" opacity="1" fill="#ffffff" fill-opacity="1"></use></g><g><use xlink:href="#e5CMUpt20E" opacity="1" fill="#ffffff" fill-opacity="1"></use></g><g><use xlink:href="#a2uYaQh2JT" opacity="1" fill="#ffffff" fill-opacity="1"></use></g><g><use xlink:href="#e6ZbBlO5Q" opacity="1" fill="#ffffff" fill-opacity="1"></use></g><g><use xlink:href="#e18KlClK8C" opacity="1" fill="#ffffff" fill-opacity="1"></use></g><g><use xlink:href="#b8e69HbW0" opacity="1" fill="#ffffff" fill-opacity="1"></use></g><g><use xlink:href="#aNoJ9Tn6M" opacity="1" fill="#ffffff" fill-opacity="1"></use></g><g><use xlink:href="#aq2QRxxtp" opacity="1" fill="#3e3e3e" fill-opacity="1"></use><g><use xlink:href="#aq2QRxxtp" opacity="1" fill-opacity="0" stroke="#3e3e3e" stroke-width="0" stroke-opacity="1"></use></g></g><g><use xlink:href="#h3kUMcl0jD" opacity="1" fill="#3e3e3e" fill-opacity="1"></use><g><use xlink:href="#h3kUMcl0jD" opacity="1" fill-opacity="0" stroke="#3e3e3e" stroke-width="0" stroke-opacity="1"></use></g></g><g><use xlink:href="#daGO0Dad2" opacity="1" fill="#3e3e3e" fill-opacity="1"></use><g><use xlink:href="#daGO0Dad2" opacity="1" fill-opacity="0" stroke="#3e3e3e" stroke-width="0" stroke-opacity="1"></use></g></g><g><use xlink:href="#d5Koh3l7A6" opacity="1" fill="#3e3e3e" fill-opacity="1"></use><g><use xlink:href="#d5Koh3l7A6" opacity="1" fill-opacity="0" stroke="#3e3e3e" stroke-width="0" stroke-opacity="1"></use></g></g><g><use xlink:href="#f3b6laICwI" opacity="1" fill="#3e3e3e" fill-opacity="1"></use><g><use xlink:href="#f3b6laICwI" opacity="1" fill-opacity="0" stroke="#3e3e3e" stroke-width="0" stroke-opacity="1"></use></g></g><g><use xlink:href="#a2PGmeaAFo" opacity="1" fill="#3e3e3e" fill-opacity="1"></use><g><use xlink:href="#a2PGmeaAFo" opacity="1" fill-opacity="0" stroke="#3e3e3e" stroke-width="0" stroke-opacity="1"></use></g></g><g><use xlink:href="#a6ciUdy6u5" opacity="1" fill="#3e3e3e" fill-opacity="1"></use><g><use xlink:href="#a6ciUdy6u5" opacity="1" fill-opacity="0" stroke="#3e3e3e" stroke-width="0" stroke-opacity="1"></use></g></g><g><use xlink:href="#agpklQn3" opacity="1" fill="#3e3e3e" fill-opacity="1"></use><g><use xlink:href="#agpklQn3" opacity="1" fill-opacity="0" stroke="#3e3e3e" stroke-width="0" stroke-opacity="1"></use></g></g><g><use xlink:href="#cY5irWDYm" opacity="1" fill="#3e3e3e" fill-opacity="1"></use><g><use xlink:href="#cY5irWDYm" opacity="1" fill-opacity="0" stroke="#3e3e3e" stroke-width="0" stroke-opacity="1"></use></g></g><g><use xlink:href="#a1ipZmtrWQ" opacity="1" fill="#3e3e3e" fill-opacity="1"></use><g><use xlink:href="#a1ipZmtrWQ" opacity="1" fill-opacity="0" stroke="#3e3e3e" stroke-width="0" stroke-opacity="1"></use></g></g><g><use xlink:href="#bdYqHcBct" opacity="1" fill="#3e3e3e" fill-opacity="1"></use><g><use xlink:href="#bdYqHcBct" opacity="1" fill-opacity="0" stroke="#3e3e3e" stroke-width="0" stroke-opacity="1"></use></g></g><g><use xlink:href="#b3IJmlHo9u" opacity="1" fill="#3e3e3e" fill-opacity="1"></use><g><use xlink:href="#b3IJmlHo9u" opacity="1" fill-opacity="0" stroke="#3e3e3e" stroke-width="0" stroke-opacity="1"></use></g></g><g><use xlink:href="#agYdjwYt2" opacity="1" fill="#3e3e3e" fill-opacity="1"></use><g><use xlink:href="#agYdjwYt2" opacity="1" fill-opacity="0" stroke="#3e3e3e" stroke-width="0" stroke-opacity="1"></use></g></g><g><use xlink:href="#g4F7HBCod" opacity="1" fill="#3e3e3e" fill-opacity="1"></use><g><use xlink:href="#g4F7HBCod" opacity="1" fill-opacity="0" stroke="#3e3e3e" stroke-width="0" stroke-opacity="1"></use></g></g><g><use xlink:href="#a9yHffSXV" opacity="1" fill="#3e3e3e" fill-opacity="1"></use><g><use xlink:href="#a9yHffSXV" opacity="1" fill-opacity="0" stroke="#3e3e3e" stroke-width="0" stroke-opacity="1"></use></g></g><g><use xlink:href="#a5hqHSVcbB" opacity="1" fill="#3e3e3e" fill-opacity="1"></use><g><use xlink:href="#a5hqHSVcbB" opacity="1" fill-opacity="0" stroke="#3e3e3e" stroke-width="0" stroke-opacity="1"></use></g></g><g><use xlink:href="#d29oFRCoJ1" opacity="1" fill="#3e3e3e" fill-opacity="1"></use><g><use xlink:href="#d29oFRCoJ1" opacity="1" fill-opacity="0" stroke="#3e3e3e" stroke-width="0" stroke-opacity="1"></use></g></g><g><use xlink:href="#a1nuSznASg" opacity="1" fill="#3e3e3e" fill-opacity="0"></use><g><use xlink:href="#a1nuSznASg" opacity="1" fill-opacity="0" stroke="#3e3e3e" stroke-width="10" stroke-opacity="1"></use></g></g><g><use xlink:href="#j1QqPVLbz" opacity="1" fill="#3e3e3e" fill-opacity="1"></use></g><g><use xlink:href="#a15aYhiABN" opacity="1" fill="#3e3e3e" fill-opacity="1"></use></g><g><use xlink:href="#bomG74UI" opacity="1" fill="#f7d601" fill-opacity="1"></use></g><g><use xlink:href="#eotzdx8ig" opacity="1" fill="#ffffff" fill-opacity="1"></use></g><g><use xlink:href="#b2GVd9R5te" opacity="1" fill="#3e3e3e" fill-opacity="1"></use><g><use xlink:href="#b2GVd9R5te" opacity="1" fill-opacity="0" stroke="#3e3e3e" stroke-width="0" stroke-opacity="1"></use></g></g><g><use xlink:href="#b32b5V80FT" opacity="1" fill="#3e3e3e" fill-opacity="1"></use><g><use xlink:href="#b32b5V80FT" opacity="1" fill-opacity="0" stroke="#3e3e3e" stroke-width="0" stroke-opacity="1"></use></g></g><g><use xlink:href="#fq0P8F4fj" opacity="1" fill="#3e3e3e" fill-opacity="1"></use><g><use xlink:href="#fq0P8F4fj" opacity="1" fill-opacity="0" stroke="#3e3e3e" stroke-width="0" stroke-opacity="1"></use></g></g><g><use xlink:href="#aikfvxPhR" opacity="1" fill="#3e3e3e" fill-opacity="1"></use><g><use xlink:href="#aikfvxPhR" opacity="1" fill-opacity="0" stroke="#3e3e3e" stroke-width="0" stroke-opacity="1"></use></g></g><g><use xlink:href="#bnN5lsamd" opacity="1" fill="#3e3e3e" fill-opacity="1"></use><g><use xlink:href="#bnN5lsamd" opacity="1" fill-opacity="0" stroke="#3e3e3e" stroke-width="0" stroke-opacity="1"></use></g></g><g><use xlink:href="#b1gmw1rY9c" opacity="1" fill="#3e3e3e" fill-opacity="1"></use><g><use xlink:href="#b1gmw1rY9c" opacity="1" fill-opacity="0" stroke="#3e3e3e" stroke-width="0" stroke-opacity="1"></use></g></g><g><use xlink:href="#arvuV3AX1" opacity="1" fill="#3e3e3e" fill-opacity="1"></use><g><use xlink:href="#arvuV3AX1" opacity="1" fill-opacity="0" stroke="#3e3e3e" stroke-width="0" stroke-opacity="1"></use></g></g><g><use xlink:href="#c1yjFyGbp" opacity="1" fill="#3e3e3e" fill-opacity="1"></use><g><use xlink:href="#c1yjFyGbp" opacity="1" fill-opacity="0" stroke="#3e3e3e" stroke-width="0" stroke-opacity="1"></use></g></g><g><use xlink:href="#b4gE3WBOC7" opacity="1" fill="#3e3e3e" fill-opacity="1"></use><g><use xlink:href="#b4gE3WBOC7" opacity="1" fill-opacity="0" stroke="#3e3e3e" stroke-width="0" stroke-opacity="1"></use></g></g><g><use xlink:href="#eDk5MTCN" opacity="1" fill="#3e3e3e" fill-opacity="1"></use><g><use xlink:href="#eDk5MTCN" opacity="1" fill-opacity="0" stroke="#3e3e3e" stroke-width="0" stroke-opacity="1"></use></g></g><g><use xlink:href="#c25r80Z51e" opacity="1" fill="#3e3e3e" fill-opacity="1"></use><g><use xlink:href="#c25r80Z51e" opacity="1" fill-opacity="0" stroke="#3e3e3e" stroke-width="0" stroke-opacity="1"></use></g></g><g><use xlink:href="#d2OSRygbfZ" opacity="1" fill="#3e3e3e" fill-opacity="1"></use><g><use xlink:href="#d2OSRygbfZ" opacity="1" fill-opacity="0" stroke="#3e3e3e" stroke-width="0" stroke-opacity="1"></use></g></g><g><use xlink:href="#brPAKWWx" opacity="1" fill="#3e3e3e" fill-opacity="1"></use><g><use xlink:href="#brPAKWWx" opacity="1" fill-opacity="0" stroke="#3e3e3e" stroke-width="0" stroke-opacity="1"></use></g></g><g><use xlink:href="#a4baLjNNib" opacity="1" fill="#3e3e3e" fill-opacity="1"></use><g><use xlink:href="#a4baLjNNib" opacity="1" fill-opacity="0" stroke="#3e3e3e" stroke-width="0" stroke-opacity="1"></use></g></g><g><use xlink:href="#bws8Rg52y" opacity="1" fill="#3e3e3e" fill-opacity="1"></use><g><use xlink:href="#bws8Rg52y" opacity="1" fill-opacity="0" stroke="#3e3e3e" stroke-width="0" stroke-opacity="1"></use></g></g><g><use xlink:href="#asblelJr" opacity="1" fill="#3e3e3e" fill-opacity="1"></use><g><use xlink:href="#asblelJr" opacity="1" fill-opacity="0" stroke="#3e3e3e" stroke-width="0" stroke-opacity="1"></use></g></g><g><use xlink:href="#aaeqY9WET" opacity="1" fill="#3e3e3e" fill-opacity="1"></use><g><use xlink:href="#aaeqY9WET" opacity="1" fill-opacity="0" stroke="#3e3e3e" stroke-width="0" stroke-opacity="1"></use></g></g><g><use xlink:href="#a7x3Y2rjc" opacity="1" fill="#3e3e3e" fill-opacity="1"></use><g><use xlink:href="#a7x3Y2rjc" opacity="1" fill-opacity="0" stroke="#3e3e3e" stroke-width="0" stroke-opacity="1"></use></g></g><g><use xlink:href="#b3ICNllVap" opacity="1" fill="#3e3e3e" fill-opacity="1"></use><g><use xlink:href="#b3ICNllVap" opacity="1" fill-opacity="0" stroke="#3e3e3e" stroke-width="0" stroke-opacity="1"></use></g></g><g><use xlink:href="#b2uSK0Bd0" opacity="1" fill="#3e3e3e" fill-opacity="1"></use><g><use xlink:href="#b2uSK0Bd0" opacity="1" fill-opacity="0" stroke="#3e3e3e" stroke-width="0" stroke-opacity="1"></use></g></g><g><use xlink:href="#egme2Qcfb" opacity="1" fill="#3e3e3e" fill-opacity="1"></use><g><use xlink:href="#egme2Qcfb" opacity="1" fill-opacity="0" stroke="#3e3e3e" stroke-width="0" stroke-opacity="1"></use></g></g><g><use xlink:href="#aN6d8nj55" opacity="1" fill="#3e3e3e" fill-opacity="1"></use><g><use xlink:href="#aN6d8nj55" opacity="1" fill-opacity="0" stroke="#3e3e3e" stroke-width="0" stroke-opacity="1"></use></g></g><g><use xlink:href="#bcmGN2erF" opacity="1" fill="#3e3e3e" fill-opacity="1"></use><g><use xlink:href="#bcmGN2erF" opacity="1" fill-opacity="0" stroke="#3e3e3e" stroke-width="0" stroke-opacity="1"></use></g></g><g><use xlink:href="#aNFcpavp3" opacity="1" fill="#3e3e3e" fill-opacity="1"></use><g><use xlink:href="#aNFcpavp3" opacity="1" fill-opacity="0" stroke="#3e3e3e" stroke-width="0" stroke-opacity="1"></use></g></g><g><use xlink:href="#cuNBxZiFo" opacity="1" fill="#3e3e3e" fill-opacity="1"></use><g><use xlink:href="#cuNBxZiFo" opacity="1" fill-opacity="0" stroke="#3e3e3e" stroke-width="0" stroke-opacity="1"></use></g></g><g><use xlink:href="#b5sfgm3nFH" opacity="1" fill="#3e3e3e" fill-opacity="1"></use><g><use xlink:href="#b5sfgm3nFH" opacity="1" fill-opacity="0" stroke="#3e3e3e" stroke-width="0" stroke-opacity="1"></use></g></g><g><use xlink:href="#f2uPROe3ap" opacity="1" fill="#3e3e3e" fill-opacity="1"></use><g><use xlink:href="#f2uPROe3ap" opacity="1" fill-opacity="0" stroke="#3e3e3e" stroke-width="0" stroke-opacity="1"></use></g></g><g><use xlink:href="#bJKVORtH9" opacity="1" fill="#3e3e3e" fill-opacity="1"></use><g><use xlink:href="#bJKVORtH9" opacity="1" fill-opacity="0" stroke="#3e3e3e" stroke-width="0" stroke-opacity="1"></use></g></g><g><use xlink:href="#a5OFnLl3Rl" opacity="1" fill="#3e3e3e" fill-opacity="1"></use><g><use xlink:href="#a5OFnLl3Rl" opacity="1" fill-opacity="0" stroke="#3e3e3e" stroke-width="0" stroke-opacity="1"></use></g></g><g><use xlink:href="#ccCsct0VV" opacity="1" fill="#ffffff" fill-opacity="1"></use></g><g><use xlink:href="#a9V7v1jOsH" opacity="1" fill="#ffffff" fill-opacity="1"></use></g><g><use xlink:href="#c489Nv4Oln" opacity="1" fill="#3e3e3e" fill-opacity="1"></use><g><use xlink:href="#c489Nv4Oln" opacity="1" fill-opacity="0" stroke="#3e3e3e" stroke-width="0" stroke-opacity="1"></use></g></g><g><use xlink:href="#a4v3kixJYi" opacity="1" fill="#3e3e3e" fill-opacity="1"></use><g><use xlink:href="#a4v3kixJYi" opacity="1" fill-opacity="0" stroke="#3e3e3e" stroke-width="0" stroke-opacity="1"></use></g></g><g><use xlink:href="#diHrD1unO" opacity="1" fill="#3e3e3e" fill-opacity="1"></use><g><use xlink:href="#diHrD1unO" opacity="1" fill-opacity="0" stroke="#3e3e3e" stroke-width="0" stroke-opacity="1"></use></g></g><g><use xlink:href="#dFpH1rYNZ" opacity="1" fill="#ffffff" fill-opacity="1"></use></g><g><use xlink:href="#f7DmrbFFM" opacity="1" fill="#3e3e3e" fill-opacity="1"></use></g><g><use xlink:href="#d2u2Dnv7An" opacity="1" fill="#3e3e3e" fill-opacity="1"></use></g></g></g></svg>